<svg version="1.1" id="Layer_1" xmlns="http://www.w3.org/2000/svg" xmlns:xlink="http://www.w3.org/1999/xlink" x="0px" y="0px"
     width="703px" height="84px" viewBox="0 0 703 84" enable-background="new 0 0 703 84" xml:space="preserve">
<g>
    <path d="M9.426,41.992c0,20.469,15.589,37.129,36.058,37.129c8.925,0,17.612-3.094,23.8-8.33l2.737,3.094
        c-7.021,5.831-16.661,9.52-26.538,9.52c-22.968,0-40.342-18.564-40.342-41.412c0-22.85,17.375-41.532,40.342-41.532
        c9.877,0,19.516,3.689,26.538,9.52l-2.737,3.213c-6.188-5.236-14.875-8.449-23.8-8.449C25.016,4.743,9.426,21.523,9.426,41.992z"/>
    <path d="M79.397,83.047l-4.046-1.428l32.25-81.16h3.213l32.369,81.16l-4.046,1.428l-8.806-22.016H88.085L79.397,83.047z
         M128.665,56.867L109.268,8.076L89.751,56.867H128.665z"/>
    <path d="M198.161,76.146l-12.257-19.16c-5.355-8.33-10.948-8.688-21.42-8.688h-10.71v34.035h-4.165V1.53h28.084
        c17.97,0,27.133,11.662,27.133,23.444c0,6.664-2.975,13.328-8.806,17.85c-2.856,2.262-8.211,4.047-14.399,4.523v0.118
        c2.856,1.429,5.593,3.689,7.854,7.141l12.376,19.278c2.142,3.332,3.57,4.165,6.545,4.165h0.714v4.284h-0.714
        C204.706,82.333,201.612,81.5,198.161,76.146z M177.692,44.133c16.065,0,22.849-10.353,22.849-19.159
        c0-9.401-7.378-19.16-22.849-19.16h-23.919v38.319H177.692z"/>
    <path d="M215.295,83.047l-4.046-1.428l32.25-81.16h3.213l32.369,81.16l-4.046,1.428l-8.807-22.016h-42.246L215.295,83.047z
         M264.562,56.867L245.165,8.076l-19.516,48.791H264.562z"/>
    <path d="M330.012,44.133c5.831,0,10.591,4.761,10.591,10.591c0,5.832-4.76,10.592-10.591,10.592s-10.592-4.76-10.592-10.592
        C319.42,48.894,324.181,44.133,330.012,44.133z"/>
    <path d="M387.367,41.992c0,20.469,15.59,37.129,36.059,37.129c8.925,0,17.612-3.094,23.801-8.33l2.736,3.094
        c-7.021,5.831-16.66,9.52-26.537,9.52c-22.968,0-40.343-18.564-40.343-41.412c0-22.85,17.375-41.532,40.343-41.532
        c9.877,0,19.517,3.689,26.537,9.52l-2.736,3.213c-6.188-5.236-14.876-8.449-23.801-8.449
        C402.957,4.743,387.367,21.523,387.367,41.992z"/>
    <path d="M463.765,1.53v38.319h51.053V1.53h4.284v80.803h-4.284v-38.2h-51.053v38.2H459.6V1.53H463.765z"/>
    <path d="M535.997,39.849h29.751v4.284h-29.751v33.916h51.053v4.284h-55.218V1.53h50.934v4.284h-46.769V39.849z"/>
    <path d="M593.235,0.816l27.728,74.734l21.183-54.385V10.099h4.284v11.067l21.302,54.385l27.728-74.734l4.047,1.547l-30.228,81.041
        h-3.213l-21.777-56.05l-21.778,56.05h-3.213L589.189,2.363L593.235,0.816z"/>
</g>
</svg>
